<svg width="15" height="15" viewBox="0 0 15 15" fill="none" xmlns="http://www.w3.org/2000/svg">
<g id="instagram" clip-path="url(#clip0_140_428)">
<path id="Vector" d="M10.625 1.25H4.375C2.64911 1.25 1.25 2.64911 1.25 4.375V10.625C1.25 12.3509 2.64911 13.75 4.375 13.75H10.625C12.3509 13.75 13.75 12.3509 13.75 10.625V4.375C13.75 2.64911 12.3509 1.25 10.625 1.25Z" stroke="white" stroke-width="2" stroke-linecap="round" stroke-linejoin="round"/>
<path id="Vector_2" d="M10.0001 7.10644C10.0772 7.62659 9.98835 8.15782 9.74616 8.62457C9.50397 9.09132 9.12078 9.46982 8.65108 9.70623C8.18138 9.94265 7.64909 10.0249 7.12993 9.9414C6.61076 9.85786 6.13116 9.61274 5.75934 9.24091C5.38751 8.86909 5.14239 8.38949 5.05885 7.87032C4.97531 7.35116 5.0576 6.81887 5.29402 6.34917C5.53043 5.87947 5.90893 5.49628 6.37568 5.25409C6.84243 5.0119 7.37366 4.92306 7.89381 5.00019C8.42439 5.07887 8.91559 5.3261 9.29487 5.70538C9.67415 6.08466 9.92138 6.57586 10.0001 7.10644Z" stroke="white" stroke-width="2" stroke-linecap="round" stroke-linejoin="round"/>
<path id="Vector_3" d="M10.9375 4.0625H10.9437" stroke="white" stroke-width="2" stroke-linecap="round" stroke-linejoin="round"/>
</g>
<defs>
<clipPath id="clip0_140_428">
<rect width="15" height="15" fill="white"/>
</clipPath>
</defs>
</svg>
